<?xml version="1.0" encoding="utf-8"?>
<!-- Generator: Adobe Illustrator 15.0.0, SVG Export Plug-In . SVG Version: 6.00 Build 0)  -->
<!DOCTYPE svg PUBLIC "-//W3C//DTD SVG 1.1//EN" "http://www.w3.org/Graphics/SVG/1.1/DTD/svg11.dtd">
<svg version="1.1" id="Layer_1" xmlns="http://www.w3.org/2000/svg" xmlns:xlink="http://www.w3.org/1999/xlink" x="0px" y="0px"
	 width="283px" height="47px" viewBox="0 0 283 47" enable-background="new 0 0 283 47" xml:space="preserve">
<g id="Layer_2">
	<path fill="#FFFFFF" d="M37.085,14.412c0,0,2.754-0.664,3.921-0.716c1.167-0.052,1.583,0.016,1.583,0.016s-1.149,4.279-1.391,5.52
		c-0.244,1.239-1.369,5.079-0.995,6.036c0.453,1.162,1.25,1.26,2.544,0.303C43.683,24.879,46,21.232,46,21.232l0.238,0.699
		c0,0-2.007,3.853-2.516,4.729c-0.51,0.875-2.06,2.581-4.233,2.505c-1.717-0.062-4.175-0.843-4.203-4.503
		C35.26,21,37.085,14.412,37.085,14.412z"/>
	<path fill="#FFFFFF" d="M42.64,10.274c0.128,1.472-0.993,2.3-2.504,1.85c-1.512-0.449-2.842-2.008-2.97-3.48
		c-0.129-1.472,0.992-2.3,2.503-1.851C41.181,7.244,42.511,8.803,42.64,10.274z"/>
	<path fill="#FFFFFF" d="M54.363,17.046c0.16-0.181,0.487-1.795-0.394-1.83c-0.882-0.034-2.344,0.672-2.994,3.959
		c-0.649,3.287-0.621,7.632,1.71,8.155s3.56-0.823,4.523-2.533s2.104-3.842,2.104-3.842l0.242,0.86c0,0-2.784,5.02-3.593,5.806
		c-0.81,0.785-3.19,2.701-6.009,1.292c-2.818-1.41-4.148-5.229-3.953-7.682c0.195-2.452,1.178-4.612,3.49-6.321
		c2.311-1.708,4.341-1.275,5.318-0.812c0.978,0.461,3.046,1.473,2.743,4.24c-0.211,1.934-1.049,3.738-3.263,2.538
		c-1.552-0.842-1.73-2.229-1.425-3.116c0.25-0.725,0.7-0.775,0.947-0.782C54.103,16.968,54.363,17.046,54.363,17.046z"/>
	<path fill="#FFFFFF" d="M64.013,16.192c0,0,1.184-6.115,1.814-7.828c0.63-1.713,1.47-3.748,2.384-4.007
		c0.914-0.26,1.299,0.12,1.299,0.12s0.261,0.91,0.979,0.939c1.334,0.055,1.283-1.768,0.104-2.403
		c-1.968-1.062-5.137,0.22-6.629,1.906c-1.493,1.686-3.071,4.182-3.836,8.822c-0.766,4.641-1.954,15.167-1.954,15.167l3.968-0.188
		l1.607-11.084c0,0,2.222-1.393,2.821-1.67c0.601-0.278,2.19-0.871,1.985,0.363c-0.205,1.232-1.333,5.309-1.429,6.878
		c-0.098,1.566-0.366,4.747,2.128,5.578c2.172,0.723,3.993-0.79,5.053-2.071c1.059-1.282,2.321-4.71,2.321-4.71l-0.13-1.484
		c0,0-1.545,4.637-2.714,5.582c-1.167,0.946-2.529,1.455-2.527-1.209c0.001-2.663,1.652-6.125,1.996-7.545
		c0.345-1.418-0.273-4.248-2.787-4.178C66.958,13.265,64.013,16.192,64.013,16.192z"/>
	<path fill="#FFFFFF" d="M90.092,20.325c0,0-1.832,3.162-2.391,4.138c-0.559,0.975-2.518,3.357-4.146,3.501
		c-1.627,0.144-2.752-0.647-3.068-1.598c-0.526-1.575-0.355-2.048-0.355-2.048s3.619-1.489,5.188-3.646
		c1.568-2.157,1.775-4.379,0.199-5.76c-1.776-1.556-5.303-1.693-7.113,0.393c-1.809,2.085-2.811,4.697-2.153,8.202
		c0.658,3.505,2.57,5.272,4.31,5.733c1.739,0.461,3.988,0.047,5.723-1.547c1.759-1.617,3.979-6.748,3.979-6.748L90.092,20.325z
		 M80.628,19.959c0.404-1.42,2.011-4.95,3.758-4.585c1.91,0.397,1.479,2.836,0.015,4.854c-1.464,2.018-4.353,3.154-4.353,3.154
		S80.226,21.381,80.628,19.959z"/>
	<path fill="#FFFFFF" d="M206.721,17.238c0,0-2.854,5.198-3.414,6.172c-0.56,0.974-2.519,3.357-4.146,3.501s-2.75-0.647-3.068-1.599
		c-0.525-1.575-0.354-2.045-0.354-2.045s3.619-1.49,5.188-3.647c1.568-2.158,1.775-4.38,0.198-5.761
		c-1.776-1.556-5.303-1.693-7.112,0.393c-1.809,2.086-2.812,4.697-2.151,8.203c0.657,3.505,2.569,5.273,4.309,5.732
		c1.739,0.463,3.988,0.047,5.724-1.547c1.759-1.617,5.001-8.781,5.001-8.781L206.721,17.238z M196.235,18.908
		c0.401-1.421,2.009-4.95,3.757-4.587c1.909,0.397,1.478,2.836,0.015,4.854c-1.464,2.018-4.352,3.155-4.352,3.155
		S195.831,20.329,196.235,18.908z"/>
	<path fill="#FFFFFF" d="M101.561,0.746c-0.341-0.184-0.72-0.292-1.118-0.346c-0.028-0.005-0.062-0.01-0.092-0.015
		c-0.003,0-0.007-0.001-0.013-0.001c-0.368-0.066-0.816-0.087-1.39-0.034c-2.018,0.186-3.895,1.252-4.735,2.126
		c-0.833,0.865-1.709,1.889-2.681,5.517c-0.972,3.628-2.01,11.839-1.993,15.153c0.016,3.315,2.073,5.411,4.479,6.125
		c2.406,0.719,4.386-1.66,5.126-2.58c0.74-0.922,1.72-3.104,1.72-3.104l-0.294-0.695c0,0-1.106,1.647-2.571,3.189
		c-1.468,1.542-2.343,1.357-3.741,0.104c-1.397-1.254-1.417-3.693-0.655-8.374c0.73-4.482,1.976-8.565,3.129-11.833
		c0,0,0.738-1.652,1.135-2.403c0.599-0.868,1.239-1.343,1.749-1.565c0.598-0.051,0.863,0.201,0.863,0.201s0.261,0.909,0.979,0.938
		C102.792,3.205,102.74,1.382,101.561,0.746z"/>
	<path fill="#FFFFFF" d="M112.34,0.761c-0.339-0.184-0.719-0.293-1.118-0.347c-0.027-0.005-0.061-0.01-0.09-0.016
		c-0.003,0-0.007,0-0.013-0.001c-0.369-0.066-0.817-0.087-1.391-0.034c-2.018,0.186-3.895,1.252-4.735,2.126
		c-0.833,0.865-1.71,1.889-2.681,5.517s-2.011,11.84-1.993,15.154c0.016,3.314,2.073,5.41,4.479,6.126
		c2.406,0.717,4.385-1.661,5.125-2.582c0.74-0.921,1.721-3.102,1.721-3.102l-0.295-0.696c0,0-1.106,1.648-2.571,3.188
		c-1.468,1.542-2.342,1.357-3.74,0.104c-1.399-1.254-1.418-3.695-0.656-8.375c0.73-4.482,1.977-8.564,3.13-11.832
		c0,0,0.738-1.652,1.135-2.403c0.6-0.868,1.238-1.345,1.749-1.565c0.597-0.052,0.863,0.2,0.863,0.2s0.261,0.909,0.979,0.938
		C113.571,3.22,113.521,1.397,112.34,0.761z"/>
	<path fill="#FFFFFF" d="M176.685,19.976c0,0-1.855,1.995-3.443,2.587c-1.589,0.591-2.57,0.111-2.57,0.111s1.218-3.062,1.342-4.318
		c0.124-1.255,0.009-3.222-1.393-4.294c-2.594-1.99-8.992-0.13-10.855,3.576c-1.86,3.706-1.888,7.883,0.577,10.176
		c2.812,2.617,6.463,2,8.175-0.763c1.712-2.762,1.814-3.377,1.814-3.377s2.179-0.073,3.234-0.52
		c1.055-0.447,3.636-2.646,3.636-2.646L176.685,19.976z M167.479,26.818c-1.065,1.186-3.016,1.231-4.36-0.767
		c-0.972-1.44-0.809-4.31-0.069-6.144c0.736-1.834,2.704-3.78,2.704-3.78s-0.562,1.945,0.639,4.053
		c1.201,2.107,2.878,2.987,2.878,2.987S168.833,25.32,167.479,26.818z"/>
	<path fill="#FFFFFF" d="M195.029,5.578c-1.968-1.062-5.137,0.219-6.628,1.906c-1.085,1.225-2.212,2.892-3.043,5.485
		c-0.756,1.712-1.416,3.382-1.416,3.382s-1.318-3.016-3.809-3.339c-2.438-0.317-4.158,1.12-5.16,4.397
		c-1.103,3.597-1.116,7.008,1.724,9.868c1.927,1.945,4.185,1.397,5.005,0.957c0.82-0.439,1.812-1.59,1.812-1.59
		s1.266,1.881,2.877,2.073c1.501,0.181,2.562-0.188,3.898-2.299c1.339-2.112,2.037-4.376,2.037-4.376l-0.124-0.988
		c0,0-0.867,2.137-1.483,3.132c-0.616,0.996-1.251,2.215-2.565,1.897c-1.317-0.315-1.756-2.195-1.371-4.058
		c0.383-1.865,1.141-5.708,2.108-8.463c0.406-1.153,0.688-2.023,0.905-2.687c0.646-1.695,1.952-3.701,2.852-3.956
		c0.914-0.26,1.299,0.12,1.299,0.12s0.261,0.91,0.979,0.939C196.261,8.036,196.209,6.213,195.029,5.578z M182.957,21.61
		c-0.267,1.86,0.278,4.076,0.278,4.076s-0.088,0.316-0.83,0.78c-0.739,0.464-1.701,0.636-2.669-0.604
		c-0.97-1.239-1.262-4.14-0.484-6.876c0.774-2.736,1.717-3.14,2.745-2.986c1.029,0.156,1.562,2.214,1.562,2.214
		S183.224,19.75,182.957,21.61z"/>
	<path fill="#FFFFFF" d="M210.503,17.28c0,0-3.326,1.044-4.191,0.978c-0.864-0.069-2.621-1.182-3.03-3.186
		c-0.333-1.63,0.577-2.461,2.295-1.884c1.509,0.506,2.039,2.548,2.039,2.548s3.872-1.948,4.814-2.312
		c1.513-0.586,3.553-0.92,3.315,1.291c-0.189,1.771-1.837,5.995-2.15,7.766c-0.313,1.77-0.126,5.724,2.276,3.929
		c1.57-1.174,3.424-5.504,3.424-5.504l0.568,0.247c0,0-1.724,3.975-2.691,5.398c-0.97,1.424-2.945,3.186-5.322,2.104
		c-1.952-0.886-2.967-2.88-2.747-5.288C209.32,20.958,210.503,17.28,210.503,17.28z"/>
	<path fill="#FFFFFF" d="M1.76,15.229c0,0-1.142,0.498-1.201,0c-0.073-0.625,2.148-1.494,3.632-2.197
		c1.484-0.703,3.69-1.025,4.804-0.381c0.907,0.525,1.016,2.265,1.016,2.265s4.829-2.08,5.936-2.343
		c1.993-0.472,3.827-0.156,4.296,1.016c0.468,1.171,0.079,2.422,0.079,2.422s6.093-2.932,7.343-3.167
		c1.25-0.234,2.772-0.276,3.593,0.781c0.643,0.829,0.469,2.776-0.859,5.666c-1.329,2.89-2.578,6.17-2.578,7.107
		c0,0.938,0.62,1.377,1.64,0.938c1.094-0.471,2.421-1.096,4.375-4.064c1.953-2.968,1.874-3.163,1.874-3.163l0.195,1.484
		c0,0-0.976,1.604-1.679,2.696c-0.703,1.094-3.162,4.06-6.561,4.921c-2.442,0.619-4.53,0.157-4.999-1.718s0.781-3.827,1.483-5.624
		c0.704-1.797,2.5-6.095,0.938-6.017c-1.562,0.079-5.547,1.799-5.547,1.799s-1.756,4.528-2.343,6.248
		c-0.51,1.496-0.87,2.91-0.557,3.457S17.197,28,17.197,28s-1.797,1.211-3.046,1.289c-1.25,0.079-2.578-0.234-2.655-1.405
		c-0.078-1.173,1.17-5.545,1.718-7.343c0.547-1.797,3.399-6.251,0.86-5.546c-1.571,0.437-4.687,1.562-4.687,1.562
		s-1.874,3.98-2.617,6.402c-0.438,1.425-1.094,3.788-0.82,4.296c0.278,0.517,0.547,0.663,0.547,0.663S5.17,29.055,3.451,29.21
		c-1.719,0.157-3.125-0.548-2.657-2.733c0.469-2.188,1.523-4.376,1.992-5.86c0.468-1.484,1.852-4.366,1.289-4.996
		C3.254,14.702,1.76,15.229,1.76,15.229z"/>
	<path fill="#FFFFFF" d="M171.552,37.844c-0.723-0.264-1.894-0.127-2.439,1.182c-0.738,1.769-2.82,3.576-4.647,4.442
		c-1.624,0.771-3.869,1.396-7.029,0.996c-3.877-0.489-8.711-2.772-8.711-2.772s0.851-1.416,1.641-3.146
		c0.791-1.729,2.939-6.269,3.966-10.483c1.024-4.22,2.665-11.629,3.046-13.006s-0.212-2.191-3.134-1.875
		c-2.705,0.293-4.052,1.055-4.862,1.348c-0.725,0.262-0.615,0.791-0.264,0.762s0.646-0.218,1.201,0.234
		c0.574,0.47,0.176,2.167,0.176,2.167l-1.553,9.051c0,0,0.151,0.13-1.112,0.116c-0.899-0.008-2.211-0.707-2.783-3.279
		c-0.614-2.762,1.405-6.678,1.963-8.201c0.556-1.523-0.384-2.138-2.93-1.992c-2.56,0.147-3.867,0.792-4.863,1.202
		c-0.996,0.41-1.259,0.731-1.2,0.966c0.059,0.235,0.654,0.079,1.005-0.009c0,0,1.055-0.058,1.133,0.8
		c0.039,0.425-0.996,4.657-1.025,6.239c-0.029,1.581,0.117,4.628,3.369,6.034c3.251,1.406,6.229-0.689,6.229-0.689
		s-0.342,1.891-0.896,4.469c-0.559,2.578-2.314,7.586-2.314,7.586s-2.666-1.698-4.101-2.488c-1.436-0.791-3.75-1.964-5.888-2.139
		c-2.138-0.176-3.889,0.447-4.833,2.4c-1.045,2.167-0.734,4.705,1.524,6.913c2.576,2.521,7.342,2.67,10.896,1.642
		c3.738-1.084,5.185-3.818,5.185-3.818s5.213,2.061,8.787,2.705c3.573,0.645,7.552,0.48,10.75-0.615
		c2.881-0.986,3.877-2.415,4.385-3.661C172.899,39.24,172.53,38.2,171.552,37.844z M144.048,43.027
		c-0.586,0.851-2.103,2.229-3.957,2.598c-1.868,0.369-3.717-0.193-4.83-1.161c-1.113-0.967-1.35-2.989-0.794-5.128
		c0.557-2.139,1.85-2.521,3.359-2.307c1.778,0.254,7.441,3.81,7.441,3.81S144.634,42.18,144.048,43.027z"/>
	<path fill="#FFFFFF" d="M124.771,20.325c0,0-1.833,3.162-2.391,4.138c-0.56,0.975-2.518,3.357-4.146,3.501
		c-1.627,0.144-2.751-0.647-3.068-1.598c-0.526-1.575-0.355-2.048-0.355-2.048s3.619-1.489,5.187-3.646
		c1.569-2.157,1.776-4.379,0.2-5.76c-1.776-1.556-5.303-1.693-7.113,0.393c-1.809,2.085-2.811,4.697-2.153,8.202
		c0.658,3.505,2.57,5.272,4.309,5.733c1.739,0.461,3.988,0.047,5.723-1.547c1.759-1.617,3.98-6.748,3.98-6.748L124.771,20.325z
		 M115.307,19.959c0.403-1.42,2.011-4.95,3.758-4.585c1.909,0.397,1.479,2.836,0.015,4.854s-4.353,3.154-4.353,3.154
		S114.904,21.381,115.307,19.959z"/>
	<path fill="#FFFFFF" d="M261.946,16.534c1.254-0.251,6.457-1.035,8.463-1.192c2.005-0.157,5.107-0.344,5.828-0.376
		c0.592-0.025,4.366-0.111,5.705-0.142c-0.035-0.441-0.085-0.875-0.143-1.292c-0.677-4.838-3-8.539-7.011-9.987
		c-1.47-0.532-3.378-0.694-5.054-0.512c-4.989,0.54-7.088,4.026-9.509,7.212c-0.65,1.75-2.699,7.134-2.699,7.134
		S260.693,16.784,261.946,16.534z"/>
	<path fill="#FFFFFF" d="M250.129,15.899c0.676,0.831,2.528,3.437,3.09,4.091c0.562,0.655,1.309,1.492,1.389,1.538
		c0.077,0.045,4.063-11.444,4.495-12.685c-2.035-3.034-4.479-5.662-9.312-5.901c-0.261,0-0.522,0-0.782,0
		c-2.636,0.073-4.562,0.947-6.091,2.204c1.268,1.888,3.467,5.168,3.872,5.788C247.362,11.814,249.453,15.068,250.129,15.899z"/>
	<path fill="#FFFFFF" d="M249.676,27.621c1.059-0.156,4.247-0.417,5.096-0.566c0.85-0.147,1.947-0.361,2.03-0.408
		c0.082-0.047-1.935-2.262-2.761-3.235c-0.828-0.975-4.033-5.146-5.144-6.824c-1.109-1.679-3.029-4.725-3.423-5.331
		c-0.848-1.309-2.351-3.615-3.444-5.292c-1.312,1.365-2.268,3.136-2.86,5.132c-0.648,2.183-1.018,5.416-0.481,8.032
		c0.481,2.356,1.692,4.366,2.888,6.108c0.647,0.943,1.325,1.85,2.025,2.728c0.033-0.001,0.065-0.002,0.1-0.003
		C244.749,27.916,248.614,27.777,249.676,27.621z"/>
	<path fill="#FFFFFF" d="M259.504,33.668c0.377-1.002,1.695-3.917,1.979-4.73c0.282-0.814,0.629-1.879,0.629-1.975
		c0-0.094-2.917,0.594-4.169,0.844c-1.256,0.25-6.456,1.031-8.465,1.186c-1.451,0.113-3.479,0.24-4.764,0.316
		c3.034,3.537,6.495,6.594,10.251,9.525c0.453,0.355,0.978,0.727,1.495,1.116c0.16-0.33,0.316-0.646,0.439-0.894
		C257.37,38.116,259.128,34.67,259.504,33.668z"/>
	<path fill="#FFFFFF" d="M266.665,24.312c-0.562-0.653-1.309-1.489-1.389-1.539c-0.082-0.046-0.955,2.818-1.372,4.027
		c-0.416,1.209-2.361,6.098-3.238,7.907c-0.876,1.812-2.279,4.586-2.615,5.224c-0.102,0.191-0.285,0.522-0.494,0.889
		c0.367,0.316,0.726,0.684,1.168,1.021c0.393,0.301,1.029,0.772,1.444,0.782c0.586,0.015,1.376-0.687,1.835-1.022
		c3.755-2.767,7.376-5.77,10.607-8.983c-0.852-1.306-2.312-3.546-2.856-4.214C269.08,27.574,267.227,24.966,266.665,24.312z"/>
	<path fill="#FFFFFF" d="M282.003,16.088c-1.594,0.046-5.25,0.152-6.065,0.208c-1.047,0.074-4.908,0.317-5.964,0.504
		c-1.054,0.187-4.231,0.535-5.075,0.708c-0.848,0.172-1.939,0.417-2.021,0.465c-0.08,0.048,1.997,2.206,2.852,3.158
		c0.854,0.952,4.175,5.031,5.329,6.678c0.796,1.135,1.868,2.711,2.589,3.777c3.514-3.516,6.979-7.165,8.125-12.758
		C281.95,17.946,282.014,17.013,282.003,16.088z"/>
</g>
</svg>
